<svg width="25" height="25" viewBox="0 0 25 25" fill="none" xmlns="http://www.w3.org/2000/svg">
<path d="M18.0612 5.68742C17.814 5.68742 17.5723 5.76073 17.3667 5.89808C17.1612 6.03543 17.001 6.23066 16.9063 6.45906C16.8117 6.68747 16.787 6.93881 16.8352 7.18128C16.8834 7.42376 17.0025 7.64649 17.1773 7.8213C17.3521 7.99612 17.5749 8.11517 17.8173 8.1634C18.0598 8.21163 18.3111 8.18688 18.5396 8.09227C18.768 7.99766 18.9632 7.83744 19.1005 7.63188C19.2379 7.42632 19.3112 7.18465 19.3112 6.93742C19.3112 6.6059 19.1795 6.28796 18.9451 6.05354C18.7107 5.81912 18.3927 5.68742 18.0612 5.68742ZM22.8529 8.20825C22.8326 7.34398 22.6707 6.48888 22.3737 5.677C22.1088 4.98235 21.6966 4.35333 21.1654 3.83325C20.6496 3.29932 20.0191 2.88969 19.3216 2.63534C18.5119 2.32925 17.6558 2.16368 16.7904 2.14575C15.6862 2.08325 15.332 2.08325 12.4987 2.08325C9.66537 2.08325 9.3112 2.08325 8.20703 2.14575C7.34157 2.16368 6.48551 2.32925 5.67578 2.63534C4.97961 2.89226 4.34967 3.30154 3.83203 3.83325C3.2981 4.34906 2.88847 4.97954 2.63411 5.677C2.32803 6.48673 2.16246 7.34279 2.14453 8.20825C2.08203 9.31242 2.08203 9.66659 2.08203 12.4999C2.08203 15.3333 2.08203 15.6874 2.14453 16.7916C2.16246 17.6571 2.32803 18.5131 2.63411 19.3228C2.88847 20.0203 3.2981 20.6508 3.83203 21.1666C4.34967 21.6983 4.97961 22.1076 5.67578 22.3645C6.48551 22.6706 7.34157 22.8362 8.20703 22.8541C9.3112 22.9166 9.66537 22.9166 12.4987 22.9166C15.332 22.9166 15.6862 22.9166 16.7904 22.8541C17.6558 22.8362 18.5119 22.6706 19.3216 22.3645C20.0191 22.1102 20.6496 21.7005 21.1654 21.1666C21.699 20.6484 22.1115 20.0189 22.3737 19.3228C22.6707 18.511 22.8326 17.6559 22.8529 16.7916C22.8529 15.6874 22.9154 15.3333 22.9154 12.4999C22.9154 9.66659 22.9154 9.31242 22.8529 8.20825ZM20.9779 16.6666C20.9703 17.3278 20.8505 17.9829 20.6237 18.6041C20.4574 19.0574 20.1902 19.467 19.8424 19.802C19.5046 20.1463 19.0958 20.4129 18.6445 20.5833C18.0234 20.8101 17.3683 20.9298 16.707 20.9374C15.6654 20.9895 15.2799 20.9999 12.5404 20.9999C9.80078 20.9999 9.41537 20.9999 8.3737 20.9374C7.68713 20.9503 7.00348 20.8446 6.35286 20.6249C5.92139 20.4458 5.53136 20.1799 5.20703 19.8437C4.86129 19.509 4.59749 19.0991 4.4362 18.6458C4.18188 18.0157 4.04083 17.3457 4.01953 16.6666C4.01953 15.6249 3.95703 15.2395 3.95703 12.4999C3.95703 9.76034 3.95703 9.37492 4.01953 8.33325C4.0242 7.65727 4.1476 6.98736 4.38411 6.35409C4.5675 5.91441 4.84897 5.52248 5.20703 5.20825C5.5235 4.85009 5.91462 4.56564 6.35286 4.37492C6.98781 4.1458 7.65703 4.02604 8.33203 4.02075C9.3737 4.02075 9.75912 3.95825 12.4987 3.95825C15.2383 3.95825 15.6237 3.95825 16.6654 4.02075C17.3266 4.02834 17.9817 4.14809 18.6029 4.37492C19.0762 4.5506 19.5011 4.83622 19.8424 5.20825C20.1838 5.52823 20.4505 5.91943 20.6237 6.35409C20.8552 6.98839 20.975 7.65802 20.9779 8.33325C21.0299 9.37492 21.0404 9.76034 21.0404 12.4999C21.0404 15.2395 21.0299 15.6249 20.9779 16.6666ZM12.4987 7.15617C11.4423 7.15823 10.4101 7.47338 9.53271 8.06181C8.65531 8.65024 7.97201 9.48554 7.56915 10.4622C7.16629 11.4388 7.06195 12.5129 7.26932 13.5488C7.47668 14.5847 7.98644 15.5359 8.73419 16.2822C9.48194 17.0285 10.4341 17.5364 11.4704 17.7417C12.5067 17.9471 13.5806 17.8407 14.5565 17.4359C15.5323 17.0311 16.3663 16.3462 16.953 15.4677C17.5397 14.5891 17.8529 13.5564 17.8529 12.4999C17.8542 11.7969 17.7166 11.1006 17.4479 10.4509C17.1792 9.80128 16.7847 9.21118 16.2871 8.71456C15.7895 8.21793 15.1986 7.82458 14.5485 7.55714C13.8983 7.28969 13.2017 7.15342 12.4987 7.15617ZM12.4987 15.9687C11.8126 15.9687 11.142 15.7652 10.5716 15.3841C10.0011 15.0029 9.55653 14.4612 9.29399 13.8274C9.03145 13.1935 8.96276 12.4961 9.0966 11.8232C9.23044 11.1503 9.56081 10.5323 10.0459 10.0471C10.531 9.56203 11.1491 9.23166 11.822 9.09782C12.4949 8.96398 13.1923 9.03267 13.8261 9.29521C14.46 9.55775 15.0017 10.0024 15.3829 10.5728C15.764 11.1432 15.9674 11.8139 15.9674 12.4999C15.9674 12.9554 15.8777 13.4065 15.7034 13.8274C15.5291 14.2482 15.2736 14.6306 14.9515 14.9527C14.6294 15.2748 14.247 15.5303 13.8261 15.7046C13.4053 15.8789 12.9542 15.9687 12.4987 15.9687Z" fill="#1A1930"/>
</svg>
