<svg width="25" height="25" viewBox="0 0 25 25" fill="none" xmlns="http://www.w3.org/2000/svg">
<path d="M19.6133 9.83365C19.5177 9.69229 19.3889 9.57656 19.2382 9.49664C19.0874 9.41673 18.9193 9.37506 18.7487 9.37532H15.6237V7.29199H17.9154C18.1916 7.29199 18.4566 7.18224 18.6519 6.98689C18.8473 6.79154 18.957 6.52659 18.957 6.25032V2.08365C18.957 1.80739 18.8473 1.54244 18.6519 1.34709C18.4566 1.15173 18.1916 1.04199 17.9154 1.04199H14.582C12.9797 1.04199 11.443 1.67852 10.3099 2.81155C9.1769 3.94458 8.54036 5.48131 8.54036 7.08365V9.37532H6.2487C5.97243 9.37532 5.70748 9.48507 5.51213 9.68042C5.31678 9.87577 5.20703 10.1407 5.20703 10.4169V14.5836C5.20703 14.8599 5.31678 15.1248 5.51213 15.3202C5.70748 15.5155 5.97243 15.6253 6.2487 15.6253H8.54036V22.9169C8.54036 23.1932 8.65011 23.4582 8.84546 23.6535C9.04081 23.8489 9.30576 23.9586 9.58203 23.9586H14.582C14.8583 23.9586 15.1233 23.8489 15.3186 23.6535C15.514 23.4582 15.6237 23.1932 15.6237 22.9169V15.6253H17.082C17.2907 15.6255 17.4945 15.563 17.6673 15.446C17.84 15.329 17.9736 15.1628 18.0508 14.969L19.7174 10.8024C19.7804 10.6446 19.8038 10.4739 19.7856 10.3051C19.7675 10.1362 19.7083 9.97441 19.6133 9.83365ZM16.3737 13.5419H14.582C14.3058 13.5419 14.0408 13.6517 13.8455 13.847C13.6501 14.0424 13.5404 14.3073 13.5404 14.5836V21.8753H10.6237V14.5836C10.6237 14.3073 10.514 14.0424 10.3186 13.847C10.1233 13.6517 9.8583 13.5419 9.58203 13.5419H7.29036V11.4586H9.58203C9.8583 11.4586 10.1233 11.3489 10.3186 11.1535C10.514 10.9582 10.6237 10.6932 10.6237 10.4169V7.08365C10.6264 6.03468 11.0444 5.02946 11.7861 4.28773C12.5278 3.54599 13.5331 3.12807 14.582 3.12532H16.8737V5.20865H16.0404C15.6877 5.15727 15.3282 5.17884 14.9842 5.27201C14.6402 5.36518 14.3189 5.52798 14.0404 5.75032C13.8713 5.9273 13.7399 6.13667 13.6539 6.36583C13.568 6.59498 13.5294 6.83917 13.5404 7.08365V10.4169C13.5404 10.6932 13.6501 10.9582 13.8455 11.1535C14.0408 11.3489 14.3058 11.4586 14.582 11.4586H17.207L16.3737 13.5419Z" fill="#1A1930"/>
</svg>
