<svg width="140" height="26" viewBox="0 0 140 26" fill="none" xmlns="http://www.w3.org/2000/svg">
<path d="M138.001 10.4756C137.938 10.2775 137.823 10.1034 137.671 9.97458C137.518 9.84575 137.334 9.76767 137.141 9.74979L131.451 8.85063L128.901 3.24979C128.82 3.06663 128.692 2.91216 128.533 2.80408C128.373 2.696 128.189 2.63867 128.001 2.63867C127.814 2.63867 127.63 2.696 127.47 2.80408C127.311 2.91216 127.183 3.06663 127.101 3.24979L124.551 8.83979L118.861 9.74979C118.676 9.77829 118.502 9.86242 118.359 9.99263C118.216 10.1228 118.109 10.2939 118.051 10.4865C117.998 10.6746 117.994 10.8748 118.038 11.0657C118.082 11.2566 118.173 11.4308 118.301 11.5698L122.431 15.9031L121.431 22.0565C121.396 22.2596 121.414 22.4695 121.485 22.6615C121.556 22.8534 121.676 23.0194 121.831 23.1398C121.983 23.2569 122.161 23.326 122.346 23.3395C122.532 23.3529 122.717 23.31 122.881 23.2156L128.001 20.3231L133.101 23.2265C133.242 23.3123 133.4 23.357 133.561 23.3565C133.773 23.3573 133.98 23.2852 134.151 23.1506C134.307 23.0303 134.427 22.8642 134.498 22.6723C134.568 22.4804 134.587 22.2704 134.551 22.0673L133.551 15.914L137.681 11.5806C137.826 11.4481 137.933 11.2739 137.989 11.0783C138.046 10.8827 138.05 10.6737 138.001 10.4756V10.4756ZM131.851 14.809C131.734 14.9318 131.646 15.0839 131.596 15.252C131.545 15.4201 131.534 15.599 131.561 15.7731L132.281 20.3123L128.521 18.1456C128.377 18.0622 128.215 18.0186 128.051 18.0186C127.888 18.0186 127.726 18.0622 127.581 18.1456L123.821 20.3123L124.541 15.7731C124.569 15.599 124.558 15.4201 124.507 15.252C124.456 15.0839 124.369 14.9318 124.251 14.809L121.251 11.559L125.461 10.8981C125.623 10.8738 125.777 10.8066 125.91 10.7027C126.042 10.5989 126.149 10.4614 126.221 10.3023L128.001 6.17479L129.881 10.3131C129.953 10.4722 130.06 10.6097 130.193 10.7136C130.325 10.8175 130.479 10.8846 130.641 10.909L134.851 11.5698L131.851 14.809Z" fill="#EA5959"/>
<path d="M22 10.9417C22.1 10.4001 21.7 9.7501 21.2 9.7501L15.5 8.88343L12.9 3.2501C12.8 3.03343 12.7 2.9251 12.5 2.81676C12 2.49176 11.4 2.70843 11.1 3.2501L8.6 8.88343L2.9 9.7501C2.6 9.7501 2.4 9.85843 2.3 10.0751C1.9 10.5084 1.9 11.1584 2.3 11.5917L6.4 15.9251L5.4 22.1001C5.4 22.3167 5.4 22.5334 5.5 22.7501C5.8 23.2917 6.4 23.5084 6.9 23.1834L12 20.2584L17.1 23.1834C17.2 23.2917 17.4 23.2917 17.6 23.2917H17.8C18.3 23.1834 18.7 22.6417 18.6 21.9917L17.6 15.8167L21.7 11.4834C21.9 11.3751 22 11.1584 22 10.9417V10.9417Z" fill="#EA5959"/>
<path d="M80 10.9417C80.1 10.4001 79.7 9.7501 79.2 9.7501L73.5 8.88343L70.9 3.2501C70.8 3.03343 70.7 2.9251 70.5 2.81676C70 2.49176 69.4 2.70843 69.1 3.2501L66.6 8.88343L60.9 9.7501C60.6 9.7501 60.4 9.85843 60.3 10.0751C59.9 10.5084 59.9 11.1584 60.3 11.5917L64.4 15.9251L63.4 22.1001C63.4 22.3167 63.4 22.5334 63.5 22.7501C63.8 23.2917 64.4 23.5084 64.9 23.1834L70 20.2584L75.1 23.1834C75.2 23.2917 75.4 23.2917 75.6 23.2917H75.8C76.3 23.1834 76.7 22.6417 76.6 21.9917L75.6 15.8167L79.7 11.4834C79.9 11.3751 80 11.1584 80 10.9417V10.9417Z" fill="#EA5959"/>
<path d="M51 10.9417C51.1 10.4001 50.7 9.7501 50.2 9.7501L44.5 8.88343L41.9 3.2501C41.8 3.03343 41.7 2.9251 41.5 2.81676C41 2.49176 40.4 2.70843 40.1 3.2501L37.6 8.88343L31.9 9.7501C31.6 9.7501 31.4 9.85843 31.3 10.0751C30.9 10.5084 30.9 11.1584 31.3 11.5917L35.4 15.9251L34.4 22.1001C34.4 22.3167 34.4 22.5334 34.5 22.7501C34.8 23.2917 35.4 23.5084 35.9 23.1834L41 20.2584L46.1 23.1834C46.2 23.2917 46.4 23.2917 46.6 23.2917H46.8C47.3 23.1834 47.7 22.6417 47.6 21.9917L46.6 15.8167L50.7 11.4834C50.9 11.3751 51 11.1584 51 10.9417V10.9417Z" fill="#EA5959"/>
<path d="M109 10.9417C109.1 10.4001 108.7 9.7501 108.2 9.7501L102.5 8.88343L99.9 3.2501C99.8 3.03343 99.7 2.9251 99.5 2.81676C99 2.49176 98.4 2.70843 98.1 3.2501L95.6 8.88343L89.9 9.7501C89.6 9.7501 89.4 9.85843 89.3 10.0751C88.9 10.5084 88.9 11.1584 89.3 11.5917L93.4 15.9251L92.4 22.1001C92.4 22.3167 92.4 22.5334 92.5 22.7501C92.8 23.2917 93.4 23.5084 93.9 23.1834L99 20.2584L104.1 23.1834C104.2 23.2917 104.4 23.2917 104.6 23.2917H104.8C105.3 23.1834 105.7 22.6417 105.6 21.9917L104.6 15.8167L108.7 11.4834C108.9 11.3751 109 11.1584 109 10.9417V10.9417Z" fill="#EA5959"/>
</svg>
