<svg width="25" height="25" viewBox="0 0 25 25" fill="none" xmlns="http://www.w3.org/2000/svg">
<path d="M18.2306 9.37431C17.298 9.37391 16.3799 9.60458 15.5582 10.0457C15.4833 9.84822 15.35 9.67823 15.1761 9.55831C15.0022 9.43839 14.796 9.37421 14.5847 9.37431H10.4181C10.2813 9.37423 10.1458 9.40112 10.0193 9.45344C9.89293 9.50576 9.77807 9.58249 9.68133 9.67923C9.58458 9.77597 9.50786 9.89084 9.45554 10.0172C9.40322 10.1436 9.37633 10.2791 9.3764 10.4159V22.9159C9.37632 23.0527 9.40321 23.1882 9.45553 23.3147C9.50785 23.4411 9.58458 23.5559 9.68132 23.6527C9.77807 23.7494 9.89293 23.8261 10.0193 23.8785C10.1458 23.9308 10.2813 23.9577 10.4181 23.9576H14.5847C14.7216 23.9577 14.857 23.9308 14.9835 23.8785C15.1099 23.8261 15.2247 23.7494 15.3215 23.6527C15.4182 23.5559 15.495 23.4411 15.5473 23.3147C15.5996 23.1882 15.6265 23.0527 15.6264 22.9159V17.1868C15.6264 16.9105 15.7361 16.6455 15.9315 16.4502C16.1269 16.2548 16.3918 16.1451 16.6681 16.1451C16.9443 16.1451 17.2093 16.2548 17.4046 16.4502C17.6 16.6455 17.7097 16.9105 17.7097 17.1868V22.9159C17.7097 23.0527 17.7365 23.1882 17.7889 23.3147C17.8412 23.4411 17.9179 23.5559 18.0147 23.6527C18.1114 23.7494 18.2263 23.8261 18.3527 23.8785C18.4791 23.9308 18.6146 23.9577 18.7514 23.9576H22.9181C23.0549 23.9577 23.1904 23.9308 23.3168 23.8785C23.4432 23.8261 23.5581 23.7494 23.6548 23.6527C23.7516 23.5559 23.8283 23.4411 23.8806 23.3147C23.9329 23.1882 23.9598 23.0527 23.9597 22.9159V15.1034C23.9578 13.5845 23.3536 12.1284 22.2796 11.0544C21.2056 9.98041 19.7495 9.37619 18.2306 9.37431ZM21.8764 21.8743H19.7931V17.1868C19.7931 16.358 19.4638 15.5631 18.8778 14.9771C18.2917 14.391 17.4969 14.0618 16.6681 14.0618C15.8393 14.0618 15.0444 14.391 14.4584 14.9771C13.8723 15.5631 13.5431 16.358 13.5431 17.1868V21.8743H11.4597V11.4576H13.5431V12.19C13.5432 12.4059 13.6103 12.6163 13.7352 12.7924C13.8601 12.9684 14.0365 13.1013 14.2402 13.1728C14.4438 13.2443 14.6647 13.2507 14.8722 13.1913C15.0797 13.1319 15.2636 13.0095 15.3985 12.8411C15.866 12.2474 16.5072 11.8144 17.2326 11.6028C17.9581 11.3911 18.7315 11.4113 19.4449 11.6604C20.1583 11.9096 20.7761 12.3753 21.212 12.9925C21.6479 13.6098 21.8802 14.3478 21.8764 15.1034V21.8743ZM7.29307 9.37431H3.1264C2.98959 9.37423 2.8541 9.40112 2.72768 9.45344C2.60127 9.50576 2.4864 9.58249 2.38966 9.67923C2.29292 9.77597 2.21619 9.89084 2.16387 10.0172C2.11155 10.1436 2.08466 10.2791 2.08474 10.4159V22.9159C2.08466 23.0527 2.11155 23.1882 2.16387 23.3147C2.21619 23.4411 2.29291 23.5559 2.38966 23.6527C2.4864 23.7494 2.60126 23.8261 2.72768 23.8785C2.8541 23.9308 2.98959 23.9577 3.1264 23.9576H7.29307C7.42989 23.9577 7.56538 23.9308 7.69179 23.8785C7.81821 23.8261 7.93307 23.7494 8.02982 23.6527C8.12656 23.5559 8.20329 23.4411 8.25561 23.3147C8.30793 23.1882 8.33482 23.0527 8.33474 22.9159V10.4159C8.33482 10.2791 8.30792 10.1436 8.2556 10.0172C8.20328 9.89084 8.12656 9.77597 8.02981 9.67923C7.93307 9.58249 7.81821 9.50576 7.69179 9.45344C7.56538 9.40112 7.42989 9.37423 7.29307 9.37431ZM6.2514 21.8743H4.16807V11.4576H6.2514V21.8743ZM5.225 1.6066C4.76912 1.57931 4.31246 1.64503 3.88279 1.79977C3.45311 1.95451 3.0594 2.19502 2.72559 2.5067C2.39178 2.81837 2.12486 3.19468 1.94105 3.61274C1.75724 4.03081 1.66039 4.4819 1.65638 4.93857C1.65237 5.39524 1.7413 5.84796 1.91774 6.26918C2.09419 6.69041 2.35447 7.07135 2.68276 7.38883C3.01104 7.70631 3.40048 7.9537 3.82737 8.11595C4.25427 8.2782 4.7097 8.35193 5.16599 8.33264H5.19549C5.65257 8.35979 6.11038 8.29346 6.54096 8.13769C6.97154 7.98193 7.36584 7.74001 7.69976 7.42671C8.03368 7.11341 8.30022 6.73532 8.48308 6.31554C8.66594 5.89575 8.76129 5.44308 8.7633 4.9852C8.7653 4.52732 8.67393 4.07384 8.49476 3.65246C8.31559 3.23109 8.05238 2.85067 7.72122 2.53446C7.39005 2.21825 6.99789 1.97287 6.5687 1.81334C6.1395 1.65381 5.68229 1.58346 5.22499 1.6066H5.225ZM5.1955 6.24931H5.16599C4.98585 6.27118 4.80311 6.25429 4.63004 6.19975C4.45697 6.14522 4.29755 6.05431 4.16249 5.93312C4.02743 5.81194 3.91984 5.66327 3.84694 5.49709C3.77404 5.33092 3.73751 5.15108 3.73981 4.96963C3.73981 4.19244 4.3227 3.68992 5.225 3.68992C5.40697 3.66566 5.59204 3.68068 5.76772 3.73397C5.94341 3.78725 6.10563 3.87757 6.24347 3.99883C6.38131 4.12009 6.49157 4.26948 6.56681 4.43694C6.64205 4.6044 6.68053 4.78604 6.67966 4.96963C6.67966 5.74681 6.09678 6.24931 5.1955 6.24931Z" fill="#1A1930"/>
</svg>
