<svg width="25" height="25" viewBox="0 0 25 25" fill="none" xmlns="http://www.w3.org/2000/svg">
<path d="M23.9481 4.11509C23.9483 3.9311 23.8996 3.75036 23.8072 3.59128C23.7147 3.4322 23.5817 3.30047 23.4218 3.2095C23.2619 3.11852 23.0807 3.07156 22.8967 3.07338C22.7127 3.07521 22.5325 3.12577 22.3744 3.2199C21.7647 3.5828 21.1083 3.86072 20.4234 4.04594C19.4452 3.2066 18.1977 2.7473 16.9088 2.75199C15.4948 2.75362 14.1368 3.3047 13.1215 4.28885C12.1063 5.273 11.5132 6.6132 11.4675 8.02645C8.68001 7.58193 6.15361 6.127 4.37009 3.9391C4.26262 3.80872 4.12538 3.70609 3.96994 3.63988C3.8145 3.57366 3.64541 3.54579 3.47694 3.55863C3.30856 3.57249 3.1461 3.62716 3.0036 3.71791C2.8611 3.80866 2.74284 3.93275 2.65906 4.07946C2.2294 4.82927 1.98264 5.66984 1.9388 6.53291C1.89497 7.39598 2.0553 8.25722 2.40678 9.0467L2.40475 9.04873C2.24678 9.14603 2.11641 9.28223 2.02611 9.4443C1.93581 9.60638 1.88861 9.78891 1.889 9.97444C1.88709 10.1274 1.89627 10.2804 1.91647 10.4322C2.02286 11.7428 2.60374 12.9697 3.55018 13.8827C3.48597 14.005 3.44679 14.1389 3.43491 14.2765C3.42303 14.4141 3.4387 14.5528 3.481 14.6843C3.89362 15.9698 4.77111 17.0552 5.94174 17.7279C4.75241 18.1878 3.46822 18.3481 2.20231 18.1948C1.96801 18.1654 1.73068 18.2165 1.52924 18.3397C1.3278 18.4629 1.17422 18.651 1.09368 18.8729C1.01315 19.0949 1.01045 19.3377 1.08602 19.5614C1.1616 19.7851 1.31096 19.9765 1.50961 20.1042C3.68679 21.5064 6.22177 22.252 8.81145 22.2516C11.7482 22.2847 14.6135 21.3462 16.9617 19.5823C19.3099 17.8184 21.0093 15.3279 21.7956 12.4982C22.1634 11.2655 22.3512 9.9862 22.3531 8.69984C22.3531 8.63168 22.3531 8.56149 22.3521 8.49131C22.8959 7.90478 23.3173 7.21558 23.5913 6.46412C23.8654 5.71265 23.9867 4.91404 23.9481 4.11509ZM20.5037 7.46083C20.3317 7.66431 20.2446 7.92624 20.2606 8.19223C20.2708 8.36411 20.2697 8.53703 20.2697 8.69984C20.2676 9.78686 20.1083 10.8678 19.7967 11.9092C19.1545 14.3169 17.7229 16.4395 15.7312 17.9369C13.7394 19.4345 11.3028 20.2201 8.81145 20.1683C7.91653 20.1686 7.0247 20.0634 6.15439 19.855C7.26419 19.4973 8.30188 18.9459 9.21937 18.2264C9.38835 18.0933 9.51203 17.9113 9.57342 17.7051C9.63481 17.499 9.63091 17.2789 9.56226 17.0751C9.49361 16.8712 9.36356 16.6936 9.18997 16.5667C9.01638 16.4397 8.80775 16.3695 8.5927 16.3658C7.7269 16.3523 6.90013 16.0033 6.28659 15.3923C6.44223 15.3628 6.59686 15.3262 6.75046 15.2824C6.97547 15.2184 7.17238 15.0805 7.30948 14.8909C7.44658 14.7013 7.5159 14.4712 7.50627 14.2374C7.49663 14.0037 7.40862 13.7799 7.25638 13.6023C7.10415 13.4247 6.89656 13.3034 6.66704 13.2581C6.16448 13.1589 5.69157 12.945 5.28508 12.6333C4.87859 12.3215 4.54947 11.9203 4.32329 11.4606C4.51155 11.4863 4.70101 11.5023 4.89092 11.5084C5.11653 11.5118 5.33737 11.4434 5.52152 11.313C5.70567 11.1826 5.84357 10.9971 5.91529 10.7831C5.98402 10.5672 5.98049 10.3349 5.90522 10.1212C5.82996 9.90754 5.68707 9.72423 5.49822 9.59909C5.04004 9.29385 4.66472 8.87974 4.40588 8.39383C4.14704 7.90793 4.01276 7.36542 4.01506 6.81488C4.01506 6.74571 4.0171 6.67654 4.02117 6.60838C6.35582 8.78573 9.384 10.0692 12.5722 10.2328C12.7331 10.2391 12.8934 10.2088 13.0409 10.1442C13.1884 10.0795 13.3193 9.98218 13.4237 9.85952C13.527 9.73567 13.6001 9.58952 13.6374 9.4326C13.6746 9.27567 13.6749 9.11224 13.6382 8.95518C13.5787 8.7066 13.5483 8.45192 13.5477 8.19631C13.5487 7.3052 13.9031 6.45086 14.5332 5.82075C15.1633 5.19064 16.0176 4.83624 16.9087 4.8353C17.3672 4.83407 17.821 4.9279 18.2413 5.11087C18.6617 5.29383 19.0396 5.56196 19.3512 5.89833C19.4713 6.02758 19.6225 6.12395 19.7904 6.17826C19.9583 6.23257 20.1373 6.24303 20.3104 6.20863C20.7383 6.12536 21.1601 6.0132 21.5728 5.87294C21.2913 6.44896 20.9315 6.9833 20.5037 7.46083Z" fill="#1A1930"/>
</svg>
